<?xml version="1.0" encoding="utf-8"?>
<!-- Generator: Adobe Illustrator 22.0.0, SVG Export Plug-In . SVG Version: 6.00 Build 0)  -->
<svg version="1.1" id="Layer_1" xmlns="http://www.w3.org/2000/svg" xmlns:xlink="http://www.w3.org/1999/xlink" x="0px" y="0px"
	 viewBox="0 0 224 326.4" style="enable-background:new 0 0 224 326.4;" xml:space="preserve">
<style type="text/css">
	.st0{fill:#F4F4F4;}
	.st1{fill:#A81D1A;stroke:#561010;stroke-width:4;stroke-linejoin:round;stroke-miterlimit:10;}
	.st2{fill:#A81D1A;}
	.st3{fill:#891616;}
	.st4{fill:#701313;}
	.st5{fill:#561010;}
	.st6{fill:none;}
	.st7{fill:#F2F2F2;}
</style>
<rect x="0.5" y="-0.5" class="st0" width="224" height="327"/>
<polygon class="st1" points="8,309 8,16 15,9 211,9 218,16 218,309 209,318 19,318 "/>
<g id="XMLID_5_">
	<g>
		<path class="st2" d="M198.5,122.9c9.2,9.2,14.9,21.9,14.9,35.9c0,14.7-6.2,27.9-16.2,37.1c0.5-13.6-4.5-27.3-14.8-37.7l0,0
			c0.4-0.4,0.9-0.8,1.3-1.3C193.2,147.5,198.1,135.3,198.5,122.9z"/>
		<path class="st2" d="M183.7,85.3c10.3,10.3,15.3,24.1,14.8,37.6c-9.2-9.2-21.8-14.8-35.8-14.8l0,0c0-0.6,0-1.2,0-1.8
			c0-14-5.7-26.7-14.8-35.9C160.8,70.4,173.8,75.4,183.7,85.3z"/>
		<path class="st3" d="M182.4,158.3c10.4,10.4,15.3,24.1,14.8,37.7c-9.1,8.4-21.2,13.6-34.5,13.6l0,0c0-0.6,0-1.2,0-1.8
			c0-14-5.7-26.7-14.8-35.9C160.3,171.8,172.7,167.3,182.4,158.3L182.4,158.3z"/>
		<path class="st3" d="M198.5,122.9c-0.4,12.4-5.4,24.6-14.8,34.1c-0.4,0.4-0.9,0.8-1.3,1.3c-9.9-9.9-22.9-14.8-35.9-14.8
			c9.5-8.9,15.7-21.4,16.1-35.3l0,0C176.7,108.1,189.3,113.8,198.5,122.9z"/>
		<path class="st2" d="M197.2,195.9c-0.4,12.4-5.4,24.6-14.8,34.1c-9.9,9.9-22.9,14.9-35.9,14.8c9.5-8.9,15.7-21.4,16.1-35.3l0,0
			C176,209.5,188.2,204.4,197.2,195.9z"/>
		<path class="st3" d="M162.7,106.3c0,0.6,0,1.2,0,1.8c-14,0-26.7,5.7-35.9,14.9c0.5-13.6-4.4-27.3-14.8-37.7
			c9.9-9.9,22.9-14.8,35.9-14.8C157,79.6,162.7,92.3,162.7,106.3z"/>
		<path class="st4" d="M162.7,207.7c0,0.6,0,1.2,0,1.8c-14,0-26.7-5.7-35.9-14.9c0.5-13.5-4.4-27.2-14.8-37.6
			c9.9,9.9,22.9,14.8,35.8,14.8C157,181,162.7,193.7,162.7,207.7z"/>
		<path class="st4" d="M182.4,158.3c-9.7,9.1-22.1,13.6-34.5,13.6C138.7,162.7,126,157,112,157c13.3,0,25.4-5.2,34.5-13.6
			C159.5,143.4,172.5,148.4,182.4,158.3z"/>
		<path class="st4" d="M162.7,108.1c-0.5,13.9-6.6,26.4-16.1,35.3c-12.4,0-24.8,4.5-34.5,13.6l0,0l0,0c9.4-9.4,14.3-21.6,14.8-34
			C136,113.8,148.7,108.1,162.7,108.1z"/>
		<path class="st3" d="M162.7,209.5c-0.5,13.9-6.6,26.4-16.1,35.3c-12.9,0-25.9-5-35.8-14.8l0,0c0.4-0.4,0.9-0.8,1.3-1.2
			c9.5-9.5,14.4-21.7,14.8-34.1C136,203.8,148.7,209.5,162.7,209.5z"/>
		<path class="st4" d="M112,85.3c10.4,10.4,15.3,24.1,14.8,37.7c-8.7,8.8-14.3,20.7-14.8,34l0,0c0-14-5.7-26.7-14.8-35.9
			C97.2,108.2,102.1,95.2,112,85.3z"/>
		<path class="st5" d="M112,157c10.3,10.3,15.3,24,14.8,37.6c-9.2-9.2-14.8-21.8-14.8-35.8C112,158.2,112,157.6,112,157z"/>
		<path class="st2" d="M112,55.6c14,0,26.7,5.7,35.9,14.8c-13,0-25.9,4.9-35.9,14.8c-9.9-9.9-22.9-14.8-35.9-14.8
			C85.3,61.3,98,55.6,112,55.6z"/>
		<path class="st5" d="M146.5,143.4c-9,8.4-21.2,13.6-34.5,13.6C121.8,148,134.1,143.4,146.5,143.4z"/>
		<path class="st5" d="M112,157c14,0,26.6,5.7,35.8,14.8C134.9,171.8,121.9,166.9,112,157L112,157L112,157L112,157z"/>
		<path class="st2" d="M146.5,244.8c-9.1,8.4-21.2,13.6-34.5,13.6c-14,0-26.7-5.7-35.9-14.8c12.4,0,24.8-4.5,34.5-13.6l0,0
			C120.6,239.9,133.6,244.8,146.5,244.8z"/>
		<path class="st5" d="M126.8,123c-0.4,12.3-5.4,24.5-14.8,34C112.5,143.7,118.1,131.8,126.8,123z"/>
		<path class="st4" d="M126.8,194.6c-0.4,12.4-5.4,24.6-14.8,34.1c-0.4,0.4-0.9,0.8-1.3,1.2C100.8,220,95.9,207,95.9,194
			c9.9-9.2,16.1-22.4,16.1-37l0,0l0,0c0,0.6,0,1.2,0,1.8C112,172.8,117.7,185.4,126.8,194.6z"/>
		<path class="st4" d="M112,157L112,157c-0.4,0.4-0.9,0.9-1.3,1.3c-9.9,9.9-14.8,22.8-14.8,35.8c-9.1,8.5-21.2,13.6-34.6,13.6
			c0-14,5.7-26.7,14.8-35.9C89.1,171.8,102.1,166.9,112,157z"/>
		<path class="st5" d="M110.7,158.3c0.4-0.4,0.8-0.8,1.3-1.2c0,14.6-6.2,27.8-16.1,37C95.9,181.1,100.8,168.2,110.7,158.3z"/>
		<path class="st5" d="M97.2,121.1c9.2,9.2,14.8,21.9,14.8,35.9C102.1,147.1,97.2,134.1,97.2,121.1z"/>
		<path class="st3" d="M112,85.3c-9.9,9.9-14.8,22.9-14.8,35.9c-9.2-9.2-21.9-14.8-35.9-14.8c0-14,5.7-26.7,14.8-35.9
			C89.1,70.4,102.1,75.4,112,85.3z"/>
		<path class="st4" d="M97.2,121.1c0,13,4.9,25.9,14.8,35.9c-9.9-9.9-22.9-14.8-35.9-14.8c-9.2-9.2-14.8-21.9-14.8-35.9
			C75.3,106.3,88,112,97.2,121.1z"/>
		<path class="st3" d="M95.9,194.1c0,13,4.9,26,14.8,35.9c-9.7,9.1-22.1,13.6-34.5,13.6c-9.2-9.2-14.8-21.9-14.8-35.9
			C74.7,207.7,86.8,202.5,95.9,194.1z"/>
		<path class="st5" d="M76.1,142.2c13,0,25.9,4.9,35.9,14.8C98,157,85.3,151.3,76.1,142.2z"/>
		<path class="st5" d="M112,157c-9.9,9.9-22.9,14.8-35.9,14.8C85.3,162.7,98,157,112,157z"/>
		<path class="st4" d="M76.1,142.2C85.3,151.3,98,157,112,157c-14,0-26.7,5.7-35.9,14.8c-13,0-25.9-4.9-35.9-14.8
			C50.2,147.1,63.2,142.2,76.1,142.2z"/>
		<path class="st2" d="M76.1,70.4c-9.2,9.2-14.8,21.9-14.8,35.9c-14,0-26.7,5.7-35.9,14.8c0-13,4.9-25.9,14.8-35.9
			S63.2,70.4,76.1,70.4z"/>
		<path class="st3" d="M61.3,106.3c0,14,5.7,26.7,14.8,35.9c-13,0-25.9,4.9-35.9,14.8c-9.9-9.9-14.8-22.9-14.8-35.9
			C34.6,112,47.3,106.3,61.3,106.3z"/>
		<path class="st3" d="M76.1,171.8c-9.2,9.2-14.8,21.9-14.8,35.9c-14,0-26.7-5.7-35.9-14.8c0-13,4.9-25.9,14.8-35.9
			C50.2,166.9,63.2,171.8,76.1,171.8z"/>
		<path class="st2" d="M61.3,207.7c0,14,5.7,26.7,14.8,35.9c-13,0-25.9-4.9-35.9-14.8c-9.9-9.9-14.8-22.9-14.8-35.9
			C34.6,202,47.3,207.7,61.3,207.7z"/>
		<path class="st2" d="M25.4,121.1c0,13,4.9,25.9,14.8,35.9c-9.9,9.9-14.8,22.9-14.8,35.9c-9.2-9.2-14.8-21.9-14.8-35.9
			S16.3,130.3,25.4,121.1z"/>
	</g>
</g>
<g>
	<rect x="35" y="130" class="st6" width="157" height="137"/>
	<path class="st0" d="M44.9,136c0-2.8-0.2-3-1.6-3.2l-1.1-0.2c-0.2-0.2-0.2-0.9,0-1c1.9,0.1,3.4,0.1,4.8,0.1c1.4,0,2.9,0,4.5-0.1
		c0.2,0.2,0.2,0.9,0,1l-0.8,0.1c-1.4,0.3-1.6,0.5-1.6,3.3v10.9c0,2.4-0.2,4.4-0.7,5.8c-1,2.6-3.2,4.6-7,4.8c-0.8,0-2.3-0.2-2.3-1.2
		c0-0.6,0.4-1.3,0.8-1.7c0.2-0.2,0.5-0.4,0.8-0.4c0.5,0,1,0.4,1.5,0.8c0.5,0.4,1,0.8,1.3,0.8c0.7,0,0.8-1.4,1-2.5
		c0.1-0.5,0.3-2.7,0.3-5.9L44.9,136L44.9,136z"/>
	<path class="st0" d="M52.6,145.7c0-4.3,3.4-6.7,6.9-6.7s6.7,2.2,6.7,6.4c0,4.4-3.2,6.4-6.9,6.4C55.7,151.9,52.6,149.8,52.6,145.7z
		 M56.9,145c0,3.1,1,5.5,2.7,5.5s2.3-1.9,2.2-4.6c0-2.9-0.9-5.4-2.6-5.4C58,140.4,56.9,141.8,56.9,145z"/>
	<path class="st0" d="M69.6,143.4c0-1.2,0-1.6-0.6-1.9l-0.4-0.3c-0.2-0.2-0.2-0.7,0-0.9c1.4-0.4,3.6-1.2,4.4-1.7
		c0.2,0,0.4,0.1,0.5,0.3c0,0.4-0.1,1.1-0.1,1.3s0.1,0.2,0.1,0.2c0.1,0,0.4-0.1,0.6-0.2c0.7-0.4,2.1-1.2,3.4-1.2
		c2.5,0,3.8,1.7,3.8,3.8v5.2c0,2.1,0.1,2.3,1.2,2.5l0.5,0.1c0.2,0.2,0.2,0.9,0,1c-0.9-0.1-2.2-0.1-3.6-0.1c-1.2,0-2.4,0-3.2,0.1
		c-0.3-0.2-0.3-0.9,0-1l0.5-0.1c0.7-0.1,0.8-0.3,0.8-2v-5.1c0-1.2-0.6-2.1-2.1-2.1c-0.8,0-1.4,0.4-1.7,0.7c-0.2,0.2-0.2,0.6-0.2,1.1
		v5.4c0,1.6,0.1,1.9,0.9,2l0.5,0.1c0.2,0.2,0.2,0.9,0,1c-0.9-0.1-1.9-0.1-3.3-0.1c-1.3,0-2.5,0-3.5,0.1c-0.3-0.2-0.3-0.9,0-1
		l0.5-0.1c1.1-0.1,1.2-0.4,1.2-2.5v-4.6H69.6z"/>
	<path class="st0" d="M94.2,136.5c0-3-0.1-3.4-1.3-3.5l-0.9-0.1c-0.3-0.1-0.3-0.8,0.1-1c2-0.1,4.3-0.3,6.9-0.3
		c2.5,0,4.2,0.3,5.5,0.8c1.8,0.7,3.7,2.3,3.7,5.2c0,4.9-4.9,5.6-6.5,5.6c-0.4,0-0.6,0-1,0c-0.2-0.1-0.3-0.6-0.1-0.8
		c2.5-0.8,3-2.5,3-4.8c0-2.2-1.1-4.6-3.8-4.6c-1.1,0-1.2,0.3-1.2,1.5v12.7c0,2.8,0.2,3,1.5,3.2l1,0.1c0.3,0.2,0.3,0.8,0,1
		c-1.7-0.1-3.1-0.1-4.6-0.1s-2.9,0-4.5,0.1c-0.3-0.2-0.4-0.9-0.1-1l0.8-0.1c1.3-0.2,1.5-0.4,1.5-3.2V136.5z"/>
	<path class="st0" d="M108,145.7c0-4.3,3.4-6.7,6.9-6.7s6.7,2.2,6.7,6.4c0,4.4-3.2,6.4-6.9,6.4C111.1,151.9,108,149.8,108,145.7z
		 M112.3,145c0,3.1,1,5.5,2.7,5.5s2.3-1.9,2.2-4.6c0-2.9-0.9-5.4-2.6-5.4C113.4,140.4,112.3,141.8,112.3,145z"/>
	<path class="st0" d="M125,143.5c0-1.2,0-1.6-0.6-1.9l-0.4-0.3c-0.2-0.2-0.2-0.7,0-0.9c1.4-0.4,3.4-1.2,4.4-1.8
		c0.2,0,0.4,0.1,0.5,0.3c-0.1,0.6-0.1,1-0.1,1.3c0,0.2,0.1,0.3,0.3,0.4c0.8-0.5,1.7-1.5,2.9-1.5c0.8,0,1.7,0.6,1.7,1.8
		c0,1.4-1,1.9-1.9,1.9c-0.4,0-0.8-0.2-1.2-0.5c-0.7-0.6-1-0.6-1.1-0.6c-0.4,0-0.6,0.7-0.6,1.8v4.6c0,2.1,0.1,2.3,1.1,2.4l1,0.1
		c0.2,0.2,0.2,0.9,0,1c-1.4-0.1-2.6-0.1-4-0.1c-1.2,0-2.5,0-3.5,0.1c-0.3-0.2-0.3-0.9,0-1l0.6-0.1c1-0.1,1.1-0.4,1.1-2.5v-4.5H125z"
		/>
	<path class="st0" d="M140.5,141.1c-0.4,0-0.4,0-0.4,0.7v4.5c0,1.7,0,3.5,2.1,3.5c0.4,0,0.9-0.2,1.3-0.5c0.3,0.1,0.5,0.4,0.4,0.8
		c-0.8,0.9-2.5,1.7-4.3,1.7c-2.5,0-3.4-1.4-3.4-3.4v-6.7c0-0.6,0-0.7-0.6-0.7h-0.9c-0.3-0.1-0.4-0.7-0.2-0.9
		c0.9-0.3,1.8-0.9,2.5-1.4c0.5-0.4,1.3-1,2.2-2.3c0.2-0.1,0.8-0.1,0.9,0.1v2.2c0,0.6,0,0.6,0.6,0.6h2.7c0.2,0.1,0.2,0.3,0.2,0.6
		s-0.1,0.9-0.4,1.1L140.5,141.1L140.5,141.1z"/>
	<path class="st0" d="M149,144.3c-0.7,0-0.8,0.1-0.8,0.5c0,2.2,1.4,4.4,4.2,4.4c0.8,0,2-0.2,2.8-1.6c0.3-0.1,0.8,0.2,0.8,0.7
		c-1.2,2.5-3.4,3.4-5.2,3.4c-4,0-6.2-2.8-6.2-6.1c0-3.8,2.7-6.7,6.5-6.7c3.1,0,4.8,2,4.8,4.3c0,0.6-0.1,1-1.1,1H149V144.3z M151,143
		c0.4,0,0.9-0.1,1.2-0.3c0.2-0.1,0.2-0.4,0.2-0.7c0-1-0.6-1.6-1.6-1.6c-1.3,0-2.3,1.2-2.3,2.2c0,0.4,0.4,0.4,1.4,0.4L151,143
		L151,143z"/>
	<path class="st0" d="M158.5,134.8c0-1.2,0-1.5-0.6-1.9l-0.5-0.3c-0.2-0.2-0.2-0.7,0-0.9c1.3-0.3,3.1-1,4.6-1.7
		c0.2,0,0.4,0.1,0.5,0.2c-0.1,1.2-0.1,2.5-0.1,4.4V148c0,2.1,0.1,2.3,1.2,2.5l0.5,0.1c0.2,0.2,0.2,0.9,0,1c-1-0.1-2.2-0.1-3.6-0.1
		c-1.3,0-2.5,0-3.6,0.1c-0.3-0.2-0.3-0.9,0-1l0.6-0.1c1-0.1,1.1-0.4,1.1-2.5L158.5,134.8L158.5,134.8z"/>
	<path class="st0" d="M166.8,134.8c0-1.2,0-1.5-0.6-1.9l-0.5-0.3c-0.2-0.2-0.2-0.7,0-0.9c1.3-0.3,3.1-1,4.6-1.7
		c0.2,0,0.4,0.1,0.5,0.2c-0.1,1.2-0.1,2.5-0.1,4.4V148c0,2.1,0.1,2.3,1.2,2.5l0.5,0.1c0.2,0.2,0.2,0.9,0,1c-1-0.1-2.2-0.1-3.6-0.1
		c-1.3,0-2.5,0-3.6,0.1c-0.3-0.2-0.3-0.9,0-1l0.6-0.1c1-0.1,1.1-0.4,1.1-2.5L166.8,134.8L166.8,134.8z"/>
	<path class="st0" d="M184,147.3c-0.1,2,0.8,2.6,1.3,2.6c0.4,0,0.7-0.1,1.1-0.4c0.3,0.1,0.5,0.4,0.4,0.7c-0.4,0.5-1.8,1.6-3.5,1.6
		c-1.1,0-1.7-0.4-2.5-1c-0.2-0.2-0.3-0.2-0.5-0.2s-0.3,0.1-0.6,0.3c-0.5,0.4-1.4,1-2.5,1c-1.7,0-3.4-1-3.4-3.1
		c0-1.5,0.9-2.5,3.1-3.1c1.1-0.4,2-0.6,2.8-0.8c0.5-0.1,0.7-0.4,0.7-0.6c0-0.3,0.1-0.7,0.1-1c0-1.1-0.5-2.6-1.7-2.6
		c-0.7,0-1.3,0.4-1.6,1.7c-0.1,0.5-0.2,0.8-0.5,1c-0.5,0.3-1.6,0.7-2.2,0.7c-0.5,0-0.7-0.3-0.7-0.8c0-0.8,0.7-1.7,1.4-2.3
		c1-0.8,2.9-1.8,5-1.8c2.5,0,4,1.3,3.8,4.3L184,147.3z M180.4,146.6c0-0.5,0-0.6-0.2-0.5c-1.3,0.2-2.5,0.7-2.5,2.1
		c0,1,0.7,1.8,1.5,1.8c0.9,0,1.1-0.5,1.1-1.5L180.4,146.6z"/>
	<path class="st0" d="M49.1,166.5c0-3-0.1-3.3-1.3-3.5l-0.8-0.1c-0.3-0.2-0.3-1.1,0.1-1.1c2.3-0.1,4.5-0.3,7.5-0.3
		c2.9,0,4.8,0.3,6.1,1.1s2.1,2,2.1,3.8c0,2.5-2.1,3.5-3.1,3.8c-0.3,0.1-0.6,0.2-0.6,0.3s0.1,0.2,0.4,0.2c2.4,0.5,4.4,2.1,4.4,5
		c0,2.8-1.6,4.4-3.5,5c-1.9,0.7-4.1,0.8-6,0.8c-1.1,0-2.2-0.1-3.1-0.1c-1.5,0-2.9,0-4.6,0.1c-0.2-0.2-0.2-1,0-1l0.9-0.2
		c1.3-0.3,1.5-0.5,1.5-3.2C49.1,177.1,49.1,166.5,49.1,166.5z M53.2,169.5c0,0.8,0,0.8,1.6,0.8c2.6,0,3.5-1.7,3.5-3.5
		c0-2.6-1.6-3.9-3.7-3.9c-1.4,0-1.4,0.2-1.4,1.6C53.2,164.5,53.2,169.5,53.2,169.5z M53.2,176.4c0,2.3,0.3,3.8,2.6,3.8
		c2.2,0,3.4-1.7,3.4-4.1c0-2.6-1.5-4.4-4.4-4.4c-1.6,0-1.6,0-1.6,1.2V176.4z"/>
	<path class="st0" d="M68.7,164.8c0-1.2,0-1.5-0.6-1.9l-0.5-0.3c-0.2-0.2-0.2-0.7,0-0.9c1.3-0.3,3.1-1,4.6-1.7
		c0.2,0,0.4,0.1,0.5,0.2c-0.1,1.2-0.1,2.5-0.1,4.4V178c0,2.1,0.1,2.3,1.2,2.5l0.5,0.1c0.2,0.2,0.2,0.9,0,1c-1-0.1-2.2-0.1-3.6-0.1
		c-1.3,0-2.6,0-3.6,0.1c-0.3-0.2-0.3-0.9,0-1l0.6-0.1c1-0.1,1.1-0.4,1.1-2.5L68.7,164.8L68.7,164.8z"/>
	<path class="st0" d="M88,177.3c-0.1,2,0.8,2.6,1.4,2.6c0.4,0,0.7-0.1,1.1-0.4c0.3,0.1,0.4,0.4,0.4,0.7c-0.4,0.5-1.8,1.6-3.5,1.6
		c-1,0-1.7-0.4-2.5-1c-0.2-0.2-0.3-0.2-0.5-0.2c-0.1,0-0.3,0.1-0.6,0.3c-0.5,0.4-1.4,1-2.5,1c-1.7,0-3.4-1-3.4-3.1
		c0-1.5,0.9-2.5,3.1-3.1c1.1-0.4,2-0.6,2.8-0.8c0.5-0.1,0.7-0.4,0.7-0.6c0-0.3,0.1-0.7,0.1-1c0-1.1-0.5-2.6-1.7-2.6
		c-0.7,0-1.4,0.4-1.6,1.7c-0.1,0.5-0.2,0.8-0.5,1c-0.4,0.3-1.6,0.7-2.2,0.7c-0.5,0-0.7-0.3-0.7-0.8c0-0.8,0.7-1.7,1.4-2.3
		c1-0.8,2.9-1.8,5-1.8c2.5,0,4,1.3,3.8,4.3L88,177.3z M84.4,176.6c0-0.5,0-0.6-0.2-0.5c-1.4,0.2-2.5,0.7-2.5,2.1
		c0,1,0.7,1.8,1.5,1.8c0.9,0,1.1-0.5,1.1-1.5L84.4,176.6z"/>
	<path class="st0" d="M103.8,169.5c0.4,0.3,0.6,0.8,0.6,1.6c0,0.9-0.4,1.7-0.8,1.7c-0.1,0-0.4-0.1-0.5-0.2c-0.8-1.2-2-2.2-3.1-2.2
		c-2,0-3,2.2-3,4.3c0,2.4,1.5,4.8,4.3,4.8c1.1,0,2-0.4,2.7-1.5c0.4,0,0.8,0.2,0.8,0.7c-0.7,1.5-2.5,3.2-5.3,3.2
		c-3.8,0-6.4-2.5-6.4-6.1c0-4.3,3.4-6.8,7.5-6.8C101.7,169,103,169.2,103.8,169.5z"/>
	<path class="st0" d="M109.1,164.8c0-1.2,0-1.5-0.6-1.9l-0.5-0.3c-0.2-0.2-0.2-0.7,0-0.9c1.2-0.3,3.1-1,4.6-1.7
		c0.2,0,0.4,0.1,0.5,0.2c-0.1,1.2-0.1,2.5-0.1,4.4v9.4c0,0.3,0.1,0.4,0.4,0.4c0.5,0,1.1-0.2,1.7-0.8l1.3-1.5c0.6-0.7,0.7-1,0.7-1.2
		c0-0.1-0.3-0.3-0.6-0.3l-0.8-0.1c-0.3-0.3-0.2-0.9,0.1-1h0.7c1.4,0,3.9-0.2,5.7-0.4c0.3,0.1,0.3,0.8,0.1,1l-1,0.2
		c-0.6,0.1-1.2,0.4-2,1c-1.1,0.9-1.6,1.3-2,1.7c-0.2,0.2-0.2,0.3-0.2,0.4s0.1,0.3,0.2,0.5c0.5,1,3.2,5,3.9,5.7
		c0.4,0.4,1,0.5,1.8,0.7l0.5,0.1c0.2,0.2,0.2,0.9-0.1,1c-0.9-0.1-2-0.1-3.8-0.1s-2.8,0-3.7,0.1c-0.3-0.1-0.4-0.8-0.1-1l0.4-0.1
		c0.3-0.1,0.5-0.1,0.5-0.2s-0.3-0.6-0.5-1l-2.1-3.2c-0.2-0.3-0.5-0.5-0.8-0.5c-0.2,0-0.4,0.2-0.4,0.7v1.7c0,2.1,0.1,2.3,1.2,2.5
		l0.5,0.1c0.2,0.2,0.2,0.9,0,1c-1-0.1-2.2-0.1-3.6-0.1s-2.6,0-3.7,0.1c-0.3-0.2-0.3-0.9,0-1l0.6-0.1c1.1-0.1,1.2-0.4,1.2-2.5
		C109.1,177.8,109.1,164.8,109.1,164.8z"/>
	<path class="st0" d="M131.4,179.9c0,2.1-0.2,3.7-0.6,4.8c-0.8,2.1-2.2,3.5-6,4.8c-0.5-0.1-0.6-0.7-0.4-1c0.6-0.3,1.2-0.8,1.5-1.1
		c1.2-1.2,1.7-3.3,1.7-7v-7c0-1.2,0-1.6-0.6-1.9l-0.4-0.3c-0.2-0.2-0.2-0.7,0-0.9c1.4-0.4,3.5-1.2,4.4-1.7c0.2,0,0.4,0.1,0.5,0.3
		c-0.1,0.9-0.1,2.2-0.1,3.6L131.4,179.9L131.4,179.9z M131.6,164.4c0,1.4-1.1,2.2-2.2,2.2c-1.3,0-2.1-0.9-2.1-2.1
		c0-1.3,1-2.2,2.2-2.2C130.8,162.3,131.6,163.2,131.6,164.4z"/>
	<path class="st0" d="M146.6,177.3c-0.1,2,0.8,2.6,1.3,2.6c0.4,0,0.7-0.1,1.1-0.4c0.3,0.1,0.5,0.4,0.4,0.7c-0.4,0.5-1.8,1.6-3.5,1.6
		c-1.1,0-1.7-0.4-2.5-1c-0.2-0.2-0.3-0.2-0.5-0.2s-0.3,0.1-0.6,0.3c-0.5,0.4-1.4,1-2.5,1c-1.7,0-3.4-1-3.4-3.1
		c0-1.5,0.9-2.5,3.1-3.1c1.1-0.4,2-0.6,2.8-0.8c0.5-0.1,0.7-0.4,0.7-0.6c0-0.3,0.1-0.7,0.1-1c0-1.1-0.5-2.6-1.7-2.6
		c-0.7,0-1.3,0.4-1.6,1.7c-0.1,0.5-0.2,0.8-0.5,1c-0.5,0.3-1.6,0.7-2.2,0.7c-0.5,0-0.7-0.3-0.7-0.8c0-0.8,0.7-1.7,1.4-2.3
		c1-0.8,2.9-1.8,5-1.8c2.5,0,4,1.3,3.8,4.3L146.6,177.3z M143,176.6c0-0.5,0-0.6-0.2-0.5c-1.3,0.2-2.5,0.7-2.5,2.1
		c0,1,0.7,1.8,1.5,1.8c0.9,0,1.1-0.5,1.1-1.5L143,176.6z"/>
	<path class="st0" d="M162.4,169.5c0.4,0.3,0.6,0.8,0.6,1.6c0,0.9-0.4,1.7-0.8,1.7c-0.2,0-0.4-0.1-0.5-0.2c-0.8-1.2-2-2.2-3.1-2.2
		c-1.9,0-3,2.2-3,4.3c0,2.4,1.5,4.8,4.3,4.8c1.1,0,2-0.4,2.7-1.5c0.4,0,0.8,0.2,0.8,0.7c-0.7,1.5-2.5,3.2-5.3,3.2
		c-3.8,0-6.4-2.5-6.4-6.1c0-4.3,3.5-6.8,7.5-6.8C160.3,169,161.6,169.2,162.4,169.5z"/>
	<path class="st0" d="M167.7,164.8c0-1.2,0-1.5-0.6-1.9l-0.5-0.3c-0.2-0.2-0.2-0.7,0-0.9c1.2-0.3,3.1-1,4.6-1.7
		c0.2,0,0.4,0.1,0.5,0.2c-0.1,1.2-0.1,2.5-0.1,4.4v9.4c0,0.3,0.1,0.4,0.4,0.4c0.5,0,1.1-0.2,1.7-0.8l1.3-1.5c0.6-0.7,0.7-1,0.7-1.2
		c0-0.1-0.3-0.3-0.6-0.3l-0.8-0.1c-0.3-0.3-0.2-0.9,0.1-1h0.7c1.4,0,3.9-0.2,5.7-0.4c0.3,0.1,0.3,0.8,0.1,1l-1,0.2
		c-0.6,0.1-1.2,0.4-2,1c-1.1,0.9-1.6,1.3-2,1.7c-0.2,0.2-0.2,0.3-0.2,0.4s0.1,0.3,0.2,0.5c0.5,1,3.2,5,3.9,5.7
		c0.4,0.4,1,0.5,1.8,0.7l0.5,0.1c0.2,0.2,0.2,0.9-0.1,1c-0.9-0.1-2-0.1-3.8-0.1s-2.8,0-3.7,0.1c-0.3-0.1-0.4-0.8-0.1-1l0.4-0.1
		c0.3-0.1,0.5-0.1,0.5-0.2s-0.3-0.6-0.5-1l-2.1-3.2c-0.2-0.3-0.5-0.5-0.8-0.5c-0.2,0-0.4,0.2-0.4,0.7v1.7c0,2.1,0.1,2.3,1.2,2.5
		l0.5,0.1c0.2,0.2,0.2,0.9,0,1c-1-0.1-2.2-0.1-3.6-0.1s-2.6,0-3.7,0.1c-0.3-0.2-0.3-0.9,0-1l0.6-0.1c1.1-0.1,1.2-0.4,1.2-2.5
		L167.7,164.8L167.7,164.8z"/>
</g>
<g>
	<g>
		<path class="st7" d="M22,13.3c-5,0-9,4-9,9s4,9,9,9s9-4,9-9S27,13.3,22,13.3z M24.1,25.4c-0.6,0-1.2-0.3-1.6-0.6
			c0,0.8,0.1,1.9,0.5,2.5h-2c0.3-0.6,0.4-1.7,0.5-2.5c-0.4,0.4-1,0.6-1.7,0.6c-1.4,0-2.5-1.1-2.5-2.5c0-1.3,1-2.4,2.3-2.5
			c0-0.2-0.1-0.4-0.1-0.6c0-1.4,1.1-2.5,2.5-2.5s2.5,1.1,2.5,2.5c0,0.2,0,0.4-0.1,0.6c1.3,0.1,2.3,1.2,2.3,2.6
			C26.7,24.3,25.5,25.5,24.1,25.4z"/>
	</g>
</g>
<g>
	<g>
		<path class="st7" d="M205,12.9c-5,0-9,4-9,9s4,9,9,9s9-4,9-9S210,12.9,205,12.9z M207.9,25.2c-1,0.3-1.8,0-2.4-0.6
			c0,0.8,0.2,1.8,0.5,2.3h-2c0.3-0.5,0.4-1.5,0.5-2.3c-0.6,0.6-1.4,0.9-2.4,0.6c-1.7-0.5-3.5-4.2,2.9-8.3
			C211.4,21.1,209.6,24.7,207.9,25.2z"/>
	</g>
</g>
<g>
	<g>
		<path class="st7" d="M211.8,301.4c0-0.1-0.1-0.3-0.1-0.4c-0.1-0.4-0.2-0.7-0.4-1c-0.1-0.1-0.1-0.3-0.2-0.4c0-0.1-0.1-0.1-0.1-0.2
			c-1.5-2.9-4.5-4.9-8-4.9l0,0l0,0c-3.5,0-6.5,2-8,4.9c0,0.1-0.1,0.1-0.1,0.2c-0.1,0.2-0.2,0.4-0.3,0.6c-0.1,0.3-0.2,0.6-0.3,0.8
			c0,0.1-0.1,0.3-0.1,0.4c-0.2,0.7-0.2,1.3-0.2,2s0.1,1.4,0.2,2c0,0.1,0.1,0.3,0.1,0.4c0.1,0.3,0.2,0.6,0.3,0.8
			c0.1,0.2,0.2,0.4,0.3,0.6c0,0.1,0.1,0.1,0.1,0.2c1.5,2.9,4.5,4.9,8,4.9l0,0l0,0c3.5,0,6.5-2,8-4.9c0-0.1,0.1-0.1,0.1-0.2
			c0.1-0.1,0.1-0.3,0.2-0.4c0.1-0.3,0.3-0.7,0.4-1c0-0.1,0.1-0.3,0.1-0.4c0.2-0.7,0.2-1.3,0.2-2C212,302.7,211.9,302,211.8,301.4z
			 M207,303.4l-4,5.3l-4-5.3l4-5.3L207,303.4z"/>
	</g>
</g>
<g>
	<g>
		<path class="st7" d="M22.9,294.4c-5,0-9.1,4.1-9.1,9.1s4.1,9.1,9.1,9.1s9.1-4.1,9.1-9.1C32,298.4,27.9,294.4,22.9,294.4z
			 M22.9,309.1c-7.8-5-5.6-9.4-3.6-10.1c1.7-0.6,3.2,0.5,3.6,1.9c0.3-1.4,1.8-2.5,3.6-1.9C28.5,299.6,30.7,304.1,22.9,309.1z"/>
	</g>
</g>
</svg>
