<?xml version="1.0" encoding="utf-8"?>
<!-- Generator: Adobe Illustrator 22.0.0, SVG Export Plug-In . SVG Version: 6.00 Build 0)  -->
<svg version="1.1" id="Capa_1" xmlns="http://www.w3.org/2000/svg" xmlns:xlink="http://www.w3.org/1999/xlink" x="0px" y="0px"
	 viewBox="0 0 296.5 296.5" style="enable-background:new 0 0 296.5 296.5;" xml:space="preserve">
<style type="text/css">
	.st0{fill:#F2F2F2;}
</style>
<g>
	<path class="st0" d="M148.2,0C66.4,0,0,66.4,0,148.2s66.4,148.2,148.2,148.2c81.9,0,148.2-66.4,148.2-148.2S230.1,0,148.2,0z
		 M185,199.9c-10.7,0-20.4-4-27.8-10.6c0.5,13.7,2.4,32,7.9,41.9h-33.7c5.5-9.9,7.3-28.2,7.9-41.9c-7.4,6.6-17.1,10.6-27.8,10.6
		c-23.1,0-41.7-18.7-41.7-41.7c0-21.7,16.5-39.5,37.7-41.5c-0.7-2.9-1-6-1-9.2c0-23.1,18.7-41.7,41.7-41.7
		c23.1,0,41.7,18.7,41.7,41.7c0,3.1-0.4,6.2-1,9.1c21.2,2,37.8,19.8,37.8,41.6C226.7,181.2,208,199.9,185,199.9z"/>
</g>
</svg>
