<?xml version="1.0" encoding="utf-8"?>
<!-- Generator: Adobe Illustrator 22.0.0, SVG Export Plug-In . SVG Version: 6.00 Build 0)  -->
<svg version="1.1" id="Capa_1" xmlns="http://www.w3.org/2000/svg" xmlns:xlink="http://www.w3.org/1999/xlink" x="0px" y="0px"
	 viewBox="0 0 296.5 296.5" style="enable-background:new 0 0 296.5 296.5;" xml:space="preserve">
<style type="text/css">
	.st0{fill:#A81D1A;}
</style>
<g>
	<path class="st0" d="M292.7,114.8c-0.6-2.4-1.2-4.8-1.8-7.1c-1.7-5.9-3.7-11.6-6-17.1c-0.9-2.2-1.9-4.4-3-6.6
		c-0.5-1.1-1.1-2.2-1.6-3.2C255.7,32.8,205.8,0,148.2,0h0h0C90.7,0,40.8,32.8,16.2,80.8c-0.5,1.1-1.1,2.1-1.6,3.2
		c-1.6,3.2-3,6.5-4.3,9.9C8.5,98.4,7,103,5.6,107.7c-0.7,2.3-1.3,4.7-1.8,7.1c-2.5,10.8-3.8,22-3.8,33.5s1.3,22.7,3.8,33.5
		c0.6,2.4,1.2,4.8,1.8,7.1c1.3,4.7,2.9,9.3,4.7,13.8c1.3,3.4,2.8,6.7,4.3,9.9c0.5,1.1,1.1,2.2,1.6,3.2c24.6,47.9,74.5,80.8,132,80.8
		h0h0c57.6,0,107.5-32.8,132-80.8c0.5-1.1,1.1-2.1,1.6-3.2c1-2.2,2-4.4,3-6.6c2.3-5.5,4.4-11.3,6-17.1c0.7-2.3,1.3-4.7,1.8-7.1
		c2.5-10.8,3.8-22,3.8-33.5S295.2,125.5,292.7,114.8z M214.7,148.2l-66.5,87.3l-66.5-87.3l66.5-87.3L214.7,148.2z"/>
</g>
</svg>
