<?xml version="1.0" encoding="utf-8"?>
<!-- Generator: Adobe Illustrator 22.0.0, SVG Export Plug-In . SVG Version: 6.00 Build 0)  -->
<svg version="1.1" id="Capa_1" xmlns="http://www.w3.org/2000/svg" xmlns:xlink="http://www.w3.org/1999/xlink" x="0px" y="0px"
	 viewBox="0 0 296.5 296.5" style="enable-background:new 0 0 296.5 296.5;" xml:space="preserve">
<style type="text/css">
	.st0{fill:#F2F2F2;}
</style>
<g>
	<path class="st0" d="M148.2,0C66.4,0,0,66.4,0,148.2s66.4,148.2,148.2,148.2c81.9,0,148.2-66.4,148.2-148.2S230.1,0,148.2,0z
		 M196.5,202.1c-15.8,5-30.1,0.2-39.1-9.3c0.7,13.2,2.7,29.3,7.7,38.4h-33.7c5-9,7-25.2,7.7-38.4c-9.1,9.4-23.3,14.3-39.1,9.3
		c-27.9-8.9-57.1-68.8,48.3-136.1C253.6,133.3,224.4,193.2,196.5,202.1z"/>
</g>
</svg>
