<?xml version="1.0" encoding="iso-8859-1"?>
<!-- Generator: Adobe Illustrator 19.0.0, SVG Export Plug-In . SVG Version: 6.00 Build 0)  -->
<svg version="1.1" id="Capa_1" xmlns="http://www.w3.org/2000/svg" xmlns:xlink="http://www.w3.org/1999/xlink" x="0px" y="0px"
	 viewBox="0 0 296.473 296.473" style="enable-background:new 0 0 296.473 296.473;" xml:space="preserve">
<g>
	<path d="M148.237,0C66.368,0,0.001,66.367,0.001,148.236s66.367,148.236,148.236,148.236c81.867,0,148.234-66.367,148.234-148.236
		S230.104,0,148.237,0z M196.489,202.12c-15.776,5.042-30.059,0.176-39.122-9.254c0.711,13.167,2.653,29.335,7.702,38.37h-33.666
		c5.049-9.035,6.991-25.202,7.702-38.369c-9.063,9.43-23.347,14.295-39.121,9.253c-27.906-8.921-57.13-68.825,48.253-136.071
		C253.619,133.295,224.395,193.199,196.489,202.12z"/>
</g>
<g>
</g>
<g>
</g>
<g>
</g>
<g>
</g>
<g>
</g>
<g>
</g>
<g>
</g>
<g>
</g>
<g>
</g>
<g>
</g>
<g>
</g>
<g>
</g>
<g>
</g>
<g>
</g>
<g>
</g>
</svg>
